[Header]
FileType HTR
DataType HTRS
FileVersion 1
NumSegments 22
NumFrames 8
DataFrameRate 24
EulerRotationOrder ZYX
CalibrationUnits mm
RotationUnits Degrees
GlobalAxisofGravity Y
BoneLengthAxis Y
ScaleFactor 1.0
[SegmentNames&Hierarchy]
reference	GLOBAL
Hips	reference
Spine	Hips
Spine1	Spine
Neck	Spine1
Head	Neck
LeftShoulder	Spine1
LeftArm	LeftShoulder
LeftForeArm	LeftArm
LeftHand	LeftForeArm
RightShoulder	Spine1
RightArm	RightShoulder
RightForeArm	RightArm
RightHand	RightForeArm
LeftUpLeg	Hips
LeftLeg	LeftUpLeg
LeftFoot	LeftLeg
LeftToeBase	LeftFoot
RightUpLeg	Hips
RightLeg	RightUpLeg
RightFoot	RightLeg
RightToeBase	RightFoot
[BasePosition]
reference	0	0	0	0	0	0	1
Hips	0	0	0	0	0	0	1
Spine	0	0	0	0	-0	90	1
Spine1	0	0	0	0	0	0	1
Neck	0	0	0	-7.352327771	-7.352327771	90	1
Head	0	0	0	0	-0	90	1
LeftShoulder	0	0	0	0	0	0	1
LeftArm	0	0	0	0	0	0	1
LeftForeArm	0	0	0	0	0	0	1
LeftHand	0	0	0	0	0	0	1
RightShoulder	0	0	0	0	-0	180	1
RightArm	0	0	0	0	-0	180	1
RightForeArm	0	0	0	0	-0	180	1
RightHand	0	0	0	0	-0	180	1
LeftUpLeg	0	0	0	0	-0	-90	1
LeftLeg	0	0	0	0	-0	-90	1
LeftFoot	0	0	0	66.57146043	-66.57146043	-90	1
LeftToeBase	0	0	0	0	-90	0	1
RightUpLeg	0	0	0	0	-0	-90	1
RightLeg	0	0	0	0	-0	-90	1
RightFoot	0	0	0	66.57146043	-66.57146043	-90	1
RightToeBase	0	0	0	0	-90	0	1
[reference]
67	0	0	0	0	-0	0	1.0
68	0	0	0	0	-0	0	1.0
69	0	0	0	0	-0	0	1.0
70	0	0	0	0	-0	0	1.0
71	0	0	0	0	-0	0	1.0
72	0	0	0	0	-0	0	1.0
73	0	0	0	0	-0	0	1.0
74	0	0	0	0	-0	0	1.0
[Hips]
67	-1.239304423	8.471037865	7.487949848	175.7987671	-152.7471313	-177.8626404	1.0
68	-1.305811286	8.476593971	7.778559208	175.9940186	-153.8431702	-178.0925598	1.0
69	-1.374987602	8.481462479	8.066419601	176.1294403	-155.4329834	-179.161499	1.0
70	-1.446064115	8.48574543	8.341072083	175.9716492	-157.8838501	-180.5120392	1.0
71	-1.523196816	8.489549637	8.623321533	175.8768768	-160.7302399	-181.7501831	1.0
72	-1.586617827	8.492977142	8.88945961	176.8059845	-164.0105133	-182.580307	1.0
73	-1.662340045	8.496130943	9.183010101	177.526001	-166.6950836	-182.4788208	1.0
74	-1.7313416	8.499118805	9.511331558	177.7080078	-168.6663971	-181.796051	1.0
[Spine]
67	0	0.7457100153	0	-8.104932785	7.403842449	-89.77903748	1.0
68	0	0.7457100153	0	-8.634777069	5.931079865	-89.67124939	1.0
69	0	0.7457100153	0	-8.027869225	4.261497974	-89.49854279	1.0
70	0	0.7457100153	0	-6.626844406	2.09980464	-88.88748169	1.0
71	0	0.7457100153	0	-5.383580208	-0.320739001	-88.20793915	1.0
72	0	0.7457100153	0	-5.274306297	-2.359441757	-88.38841248	1.0
73	0	0.7457100153	0	-5.536774635	-4.382716179	-88.87957001	1.0
74	0	0.7457100153	0	-6.013311863	-5.108751774	-89.7951355	1.0
[Spine1]
67	0	2.140589952	0	13.07980537	2.666526079	-1.62952733	1.0
68	0	2.140589952	0	14.25212383	2.208125591	-2.002324343	1.0
69	0	2.140589952	0	13.74782467	1.552287579	-1.190664887	1.0
70	0	2.140589952	0	12.75703335	0.7673793435	-0.7401736975	1.0
71	0	2.140589952	0	12.66982269	-0.03857937455	-0.6447947025	1.0
72	0	2.140589952	0	12.06697464	-1.868797064	-0.1244502515	1.0
73	0	2.140589952	0	11.67665768	-1.505962133	0.2448389083	1.0
74	0	2.140589952	0	11.9394331	-1.775896311	0.3737916946	1.0
[Neck]
67	0	2.32246995	0	-7.928020954	12.46157742	-91.96983337	1.0
68	0	2.32246995	0	-7.560193539	12.28815269	-91.73022461	1.0
69	0	2.32246995	0	-6.14079237	12.27418041	-91.68669891	1.0
70	0	2.32246995	0	-5.251505852	12.4117527	-91.04776001	1.0
71	0	2.32246995	0	-5.015816689	12.27591896	-90.48423767	1.0
72	0	2.32246995	0	-6.22397995	12.07005978	-89.51583862	1.0
73	0	2.32246995	0	-8.386816025	12.35604954	-88.30989838	1.0
74	0	2.32246995	0	-9.593069077	11.8793354	-86.81964111	1.0
[Head]
67	0	1.409579992	0.1818799973	-4.422744274	5.560954571	-93.10101318	1.0
68	0	1.409579992	0.1818799973	-4.768136978	5.455647945	-94.21038055	1.0
69	0	1.409579992	0.1818799973	-4.774310112	5.417657375	-94.27334595	1.0
70	0	1.409579992	0.1818799973	-5.33419466	4.428526402	-95.18378448	1.0
71	0	1.409579992	0.1818799973	-7.415358543	-0.04696335644	-99.72483826	1.0
72	0	1.409579992	0.1818799973	-6.664010525	3.199436665	-96.74507141	1.0
73	0	1.409579992	0.1818799973	-4.78925705	5.380164623	-92.65763092	1.0
74	0	1.409579992	0.1818799973	-4.278870106	4.970998764	-93.82989502	1.0
[LeftShoulder]
67	0.3668199778	1.946700096	-0.02662999928	-13.77737331	-9.431391716	-4.016634464	1.0
68	0.3668199778	1.946700096	-0.02662999928	-14.68971443	-9.720949173	-4.192000866	1.0
69	0.3668199778	1.946700096	-0.02662999928	-15.66525745	-10.24705124	-5.035387039	1.0
70	0.3668199778	1.946700096	-0.02662999928	-15.91265297	-11.16404629	-5.554695129	1.0
71	0.3668199778	1.946700096	-0.02662999928	-16.63088799	-11.57745838	-4.708843231	1.0
72	0.3668199778	1.946700096	-0.02662999928	-15.4480257	-12.74405193	-4.191339493	1.0
73	0.3668199778	1.946700096	-0.02662999928	-16.64300346	-12.55845928	-3.402934551	1.0
74	0.3668199778	1.946700096	-0.02662999928	-17.39162254	-13.39976025	-2.724140644	1.0
[LeftArm]
67	1.140689969	0	0	26.98631668	21.58477402	-68.03849792	1.0
68	1.140689969	0	0	33.30886841	18.25771904	-68.98158264	1.0
69	1.140689969	0	0	40.68078995	14.74932766	-69.24743652	1.0
70	1.140689969	0	0	48.59696198	10.55007172	-68.48195648	1.0
71	1.140689969	0	0	53.11956406	7.035834312	-68.27589417	1.0
72	1.140689969	0	0	53.8015213	0.9250902534	-69.6893158	1.0
73	1.140689969	0	0	55.46208572	-1.607847452	-70.13895416	1.0
74	1.140689969	0	0	-7.910723209	4.589781284	-46.82471466	1.0
[LeftForeArm]
67	2.749800205	0	0	-14.16296101	-5.940888882	-3.325149775	1.0
68	2.749800205	0	0	-14.54230022	-6.842687607	-2.414417982	1.0
69	2.749800205	0	0	-13.03977299	-7.947304249	-2.849252224	1.0
70	2.749800205	0	0	-9.726579666	-9.924426079	-2.756487608	1.0
71	2.749800205	0	0	-9.789888382	-9.895247459	-2.80501914	1.0
72	2.749800205	0	0	6.798226357	-11.34241867	-1.445325732	1.0
73	2.749800205	0	0	18.77618408	-18.3703804	1.964900851	1.0
74	2.749800205	0	0	110.3113785	-19.76582336	-54.12338257	1.0
[LeftHand]
67	2.295179844	0	0	-14.28140068	-1.179778457	-5.251791	1.0
68	2.295179844	0	0	-14.65708637	-2.102829456	-1.607907176	1.0
69	2.295179844	0	0	-13.25989914	-2.780584097	0.9500941038	1.0
70	2.295179844	0	0	-9.721242905	-5.354854107	-5.394483089	1.0
71	2.295179844	0	0	-9.803491592	-5.215195179	-5.029062748	1.0
72	2.295179844	0	0	7.902772903	-23.39707947	-20.20943069	1.0
73	2.295179844	0	0	4.237232208	-26.94375229	-24.91905975	1.0
74	2.295179844	0	0	6.462013245	-41.92928314	-33.79966736	1.0
[RightShoulder]
67	-0.3601199985	1.946700096	-0.02662999928	-8.544116974	6.411316872	176.7952271	1.0
68	-0.3601199985	1.946700096	-0.02662999928	-9.258791924	6.054560661	176.390686	1.0
69	-0.3601199985	1.946700096	-0.02662999928	-7.822268486	5.106140137	176.3779602	1.0
70	-0.3601199985	1.946700096	-0.02662999928	-6.602215767	3.960732937	176.6800232	1.0
71	-0.3601199985	1.946700096	-0.02662999928	-5.379748344	2.54947567	176.7535553	1.0
72	-0.3601199985	1.946700096	-0.02662999928	-2.362442017	2.368891716	177.0251923	1.0
73	-0.3601199985	1.946700096	-0.02662999928	-1.273531318	1.741466045	177.0984802	1.0
74	-0.3601199985	1.946700096	-0.02662999928	-1.003471613	1.139026046	176.7999573	1.0
[RightArm]
67	-1.140689969	0	0	50.31966782	1.004963636	-99.82496643	1.0
68	-1.140689969	0	0	46.63594818	-1.796918273	-99.74033356	1.0
69	-1.140689969	0	0	42.13986588	-3.737411022	-100.9238281	1.0
70	-1.140689969	0	0	36.34312439	-5.847322464	-102.8855057	1.0
71	-1.140689969	0	0	32.79221344	-7.714761257	-104.4013443	1.0
72	-1.140689969	0	0	26.70464325	-9.134401321	-106.5644226	1.0
73	-1.140689969	0	0	20.6354351	-11.84193993	-108.3628922	1.0
74	-1.140689969	0	0	15.21719074	-14.595788	-109.5789108	1.0
[RightForeArm]
67	-2.749800205	0	0	1.402961969	12.7805109	180.3859863	1.0
68	-2.749800205	0	0	2.48370409	10.45535278	182.048111	1.0
69	-2.749800205	0	0	3.020841122	9.084856033	183.2809448	1.0
70	-2.749800205	0	0	4.622294426	8.772830009	185.196167	1.0
71	-2.749800205	0	0	5.591393948	8.663173676	185.9172821	1.0
72	-2.749800205	0	0	6.796219826	9.562456131	187.2266998	1.0
73	-2.749800205	0	0	8.867342949	9.335839272	189.1113129	1.0
74	-2.749800205	0	0	11.20700932	7.879971504	191.2614899	1.0
[RightHand]
67	-2.295179844	0	0	0.9939038157	8.721055031	175.1614227	1.0
68	-2.295179844	0	0	1.915659547	7.515118599	174.1999817	1.0
69	-2.295179844	0	0	2.425096035	6.261936665	173.8814545	1.0
70	-2.295179844	0	0	3.945117235	5.877123356	174.5879059	1.0
71	-2.295179844	0	0	4.931632042	5.863510609	175.8520508	1.0
72	-2.295179844	0	0	5.975849152	6.322003841	176.1438141	1.0
73	-2.295179844	0	0	7.892045021	6.296569347	175.8224945	1.0
74	-2.295179844	0	0	10.22525787	5.600536346	175.806366	1.0
[LeftUpLeg]
67	0.9094099998	0	0	2.572091103	3.367905617	82.74171448	1.0
68	0.9094099998	0	0	3.954971313	3.846992493	82.39517212	1.0
69	0.9094099998	0	0	4.721402645	5.277794361	82.66805267	1.0
70	0.9094099998	0	0	6.355541229	4.1106987	83.37136841	1.0
71	0.9094099998	0	0	5.016592979	-0.7593437433	81.66065979	1.0
72	0.9094099998	0	0	8.907205582	-2.273425102	83.08763123	1.0
73	0.9094099998	0	0	11.51156044	1.790438652	85.4312439	1.0
74	0.9094099998	0	0	14.63131332	2.270267725	86.04612732	1.0
[LeftLeg]
67	0	-4.498080254	0	4.274703979	-7.05312252	83.85578918	1.0
68	0	-4.498080254	0	6.096267223	-0.5753148198	84.9094696	1.0
69	0	-4.498080254	0	9.372681618	1.267972231	86.52763367	1.0
70	0	-4.498080254	0	10.96925068	1.795975208	87.85038757	1.0
71	0	-4.498080254	0	24.95537758	-7.927380562	83.26739502	1.0
72	0	-4.498080254	0	15.77846718	4.525791168	89.54589081	1.0
73	0	-4.498080254	0	11.25435925	-1.377175927	89.20052338	1.0
74	0	-4.498080254	0	8.913916588	-6.157876492	86.27068329	1.0
[LeftFoot]
67	0	-3.729400158	0	-75.50332642	120.8310547	-23.05899048	1.0
68	0	-3.729400158	0	-85.83998871	111.8033295	-32.0451622	1.0
69	0	-3.729400158	0	-96.13024139	108.1192245	-41.68780518	1.0
70	0	-3.729400158	0	-106.8327942	119.3917084	-54.59234619	1.0
71	0	-3.729400158	0	-78.33708954	117.0209122	-20.02123451	1.0
72	0	-3.729400158	0	-111.105011	115.8944016	-57.89237213	1.0
73	0	-3.729400158	0	-113.9723892	120.9605713	-60.55550385	1.0
74	0	-3.729400158	0	-103.3221664	113.7120285	-50.5246582	1.0
[LeftToeBase]
67	0	-0.5911099911	1.364109993	0	0	0	1.0
68	0	-0.5911099911	1.364109993	0	0	0	1.0
69	0	-0.5911099911	1.364109993	0	0	0	1.0
70	0	-0.5911099911	1.364109993	0	0	0	1.0
71	0	-0.5911099911	1.364109993	0	0	0	1.0
72	0	-0.5911099911	1.364109993	0	0	0	1.0
73	0	-0.5911099911	1.364109993	0	0	0	1.0
74	0	-0.5911099911	1.364109993	0	0	0	1.0
[RightUpLeg]
67	-0.9094099998	0	0	-3.046656609	-14.18448448	85.07606506	1.0
68	-0.9094099998	0	0	-8.450692177	-12.22888756	87.80245209	1.0
69	-0.9094099998	0	0	-12.97674274	-9.151616096	90.63063049	1.0
70	-0.9094099998	0	0	-16.01757431	-3.878471851	92.27443695	1.0
71	-0.9094099998	0	0	-18.77714157	-6.958856583	95.15460205	1.0
72	-0.9094099998	0	0	-20.80925179	-7.394327641	96.34692383	1.0
73	-0.9094099998	0	0	-20.54383278	3.374715567	92.43468475	1.0
74	-0.9094099998	0	0	-18.44085312	3.151192665	91.71459961	1.0
[RightLeg]
67	0	-4.498080254	0	58.79758453	10.95208549	78.52441406	1.0
68	0	-4.498080254	0	61.10285568	9.870261192	75.02657318	1.0
69	0	-4.498080254	0	59.74733353	5.535776615	70.62032318	1.0
70	0	-4.498080254	0	56.29955292	-0.7094798088	70.32896423	1.0
71	0	-4.498080254	0	49.15383148	-3.315660954	67.43125916	1.0
72	0	-4.498080254	0	39.77901459	-6.659986973	69.95996857	1.0
73	0	-4.498080254	0	27.66378403	-21.19549942	74.71437836	1.0
74	0	-4.498080254	0	14.2351799	-22.55424309	81.63710022	1.0
[RightFoot]
67	0	-3.729400158	0	77.90721893	49.89498901	101.2890091	1.0
68	0	-3.729400158	0	70.52102661	55.80630112	99.49507904	1.0
69	0	-3.729400158	0	68.8041153	59.74042892	102.4529037	1.0
70	0	-3.729400158	0	70.69919586	69.34694672	106.8383789	1.0
71	0	-3.729400158	0	74.58450317	65.43908691	115.2674408	1.0
72	0	-3.729400158	0	69.42411804	59.21059036	113.3952789	1.0
73	0	-3.729400158	0	93.3113327	68.33911133	132.8495178	1.0
74	0	-3.729400158	0	38.36611938	55.30326462	65.6368866	1.0
[RightToeBase]
67	0	-0.5911099911	1.364109993	0	0	0	1.0
68	0	-0.5911099911	1.364109993	0	0	0	1.0
69	0	-0.5911099911	1.364109993	0	0	0	1.0
70	0	-0.5911099911	1.364109993	0	0	0	1.0
71	0	-0.5911099911	1.364109993	0	0	0	1.0
72	0	-0.5911099911	1.364109993	0	0	0	1.0
73	0	-0.5911099911	1.364109993	0	0	0	1.0
74	0	-0.5911099911	1.364109993	0	0	0	1.0
[EndOfFile]
